<svg width="400" height="200" viewBox="0 0 400 200" fill="none" xmlns="http://www.w3.org/2000/svg">
<path d="M300.045 0C298.885 0 297.725 0 296.584 0.0599161C296.544 0.0599161 296.524 0.0599161 296.484 0.0599161C296.384 0.0599161 296.284 0.0599161 296.184 0.0599161H295.904C295.904 0.0599161 295.704 0.0599161 295.604 0.0599161C295.504 0.0599161 295.424 0.0599161 295.324 0.0599161C295.224 0.0599161 295.144 0.0599161 295.044 0.0599161C294.924 0.0599161 294.804 0.0599161 294.684 0.0599161C294.624 0.0599161 294.544 0.0599161 294.484 0.0599161C294.344 0.0599161 294.184 0.0599161 294.044 0.0599161C294.004 0.0599161 293.964 0.0599161 293.924 0.0599161C293.784 0.0599161 293.644 0.0599161 293.484 0.0599161H293.304C292.924 0.0599161 292.524 0.0599161 292.144 0.0599161C292.084 0.0599161 292.024 0.0599161 291.964 0.0599161C291.824 0.0599161 291.704 0.0599161 291.564 0.0599161C291.504 0.0599161 291.444 0.0599161 291.404 0.0599161H290.964C290.964 0.0599161 290.864 0.0599161 290.804 0.0599161C290.684 0.0599161 290.544 0.0599161 290.424 0.0599161C290.344 0.0599161 290.244 0.0599161 290.164 0.0599161C290.043 0.0599161 289.943 0.0599161 289.823 0.0599161C289.763 0.0599161 289.683 0.0599161 289.623 0.0599161C289.483 0.0599161 289.363 0.0599161 289.223 0.0599161C289.163 0.0599161 289.083 0.0599161 289.023 0.0599161C288.903 0.0599161 288.783 0.0599161 288.663 0.0599161C288.583 0.0599161 288.503 0.0599161 288.423 0.0599161C288.303 0.0599161 288.183 0.0599161 288.083 0.0599161C288.003 0.0599161 287.923 0.0599161 287.843 0.0599161C287.723 0.0599161 287.603 0.0599161 287.503 0.0798882C287.423 0.0798882 287.343 0.0798882 287.263 0.0798882C287.123 0.0798882 287.003 0.0798882 286.863 0.0998602C286.803 0.0998602 286.743 0.0998602 286.703 0.0998602C286.563 0.0998602 286.423 0.119832 286.283 0.139804C286.223 0.139804 286.163 0.139804 286.083 0.139804C285.963 0.139804 285.843 0.159776 285.723 0.159776C285.643 0.159776 285.563 0.159776 285.483 0.179748C285.363 0.179748 285.243 0.179748 285.123 0.219692C285.043 0.219692 284.983 0.219692 284.903 0.219692C284.503 0.259637 284.123 0.299581 283.723 0.339525C283.102 0.399441 282.502 0.479329 281.882 0.539245C281.842 0.539245 281.802 0.539245 281.762 0.539245C281.642 0.539245 281.502 0.579189 281.382 0.579189C281.382 0.579189 281.362 0.579189 281.342 0.579189C281.202 0.579189 281.062 0.619133 280.922 0.639105C280.902 0.639105 280.882 0.639105 280.862 0.639105C280.742 0.639105 280.622 0.679049 280.502 0.679049C280.442 0.679049 280.402 0.679049 280.342 0.699021C280.242 0.699021 280.142 0.738965 280.022 0.738965C279.982 0.738965 279.942 0.738965 279.902 0.738965C279.762 0.738965 279.622 0.77891 279.502 0.798882C279.362 0.818854 279.222 0.838826 279.062 0.858798H279.022C277.322 1.11843 275.601 1.43799 273.901 1.79748C273.601 1.8574 273.301 1.93729 272.981 1.9972C272.981 1.9972 272.981 1.9972 272.961 1.9972C267.22 3.29539 261.519 5.17276 255.918 7.68924L255.838 7.72918C255.258 7.98882 254.678 8.24845 254.098 8.52806C253.858 8.64789 253.638 8.76772 253.398 8.88756C253.178 8.98742 252.978 9.10725 252.758 9.20711C252.478 9.34691 252.218 9.48672 251.958 9.62652C251.758 9.72638 251.558 9.84622 251.338 9.94608C251.238 10.006 251.138 10.0459 251.038 10.1059C250.498 10.4054 249.957 10.705 249.417 11.0046C249.157 11.1444 248.897 11.3042 248.637 11.444C247.877 11.8634 247.137 12.3028 246.397 12.7422C246.137 12.9019 245.877 13.0617 245.617 13.2015C228.494 23.547 213.832 37.7072 200.09 53.2255C197.51 55.8019 194.929 58.4182 192.369 61.0346C177.207 25.3046 141.561 0 100.015 0C44.7867 0 0 44.7174 0 99.8602C0 155.003 44.7867 199.72 100.015 199.72C101.175 199.72 102.335 199.72 103.476 199.66C103.516 199.66 103.536 199.66 103.576 199.66C103.676 199.66 103.776 199.66 103.876 199.66H104.156C104.156 199.66 104.356 199.66 104.456 199.66C104.556 199.66 104.636 199.66 104.736 199.66C104.836 199.66 104.916 199.66 105.016 199.66C105.136 199.66 105.256 199.66 105.376 199.66C105.436 199.66 105.516 199.66 105.576 199.66C105.716 199.66 105.876 199.66 106.016 199.66C106.056 199.66 106.096 199.66 106.136 199.66C106.276 199.66 106.416 199.66 106.576 199.66H106.756C107.136 199.66 107.536 199.66 107.916 199.66C107.976 199.66 108.036 199.66 108.096 199.66C108.236 199.66 108.356 199.66 108.496 199.66C108.556 199.66 108.616 199.66 108.656 199.66C108.796 199.66 108.956 199.66 109.096 199.66C109.156 199.66 109.196 199.66 109.256 199.66C109.376 199.66 109.516 199.66 109.636 199.66C109.716 199.66 109.816 199.66 109.896 199.66C110.016 199.66 110.117 199.66 110.237 199.66C110.297 199.66 110.377 199.66 110.437 199.66C110.577 199.66 110.697 199.66 110.837 199.66C110.897 199.66 110.977 199.66 111.037 199.66C111.157 199.66 111.277 199.66 111.397 199.66C111.477 199.66 111.557 199.66 111.637 199.66C111.757 199.66 111.877 199.66 111.977 199.66C112.057 199.66 112.137 199.66 112.217 199.66C112.337 199.66 112.457 199.66 112.557 199.641C112.637 199.641 112.717 199.641 112.797 199.641C112.937 199.641 113.057 199.641 113.197 199.621C113.257 199.621 113.317 199.621 113.357 199.621C113.497 199.621 113.637 199.601 113.777 199.581C113.837 199.581 113.897 199.581 113.977 199.581C114.097 199.581 114.217 199.561 114.337 199.561C114.417 199.561 114.497 199.561 114.577 199.541C114.697 199.541 114.817 199.541 114.937 199.501C115.017 199.501 115.077 199.501 115.157 199.501C115.557 199.461 115.937 199.421 116.337 199.381C116.958 199.321 117.558 199.241 118.178 199.181C118.218 199.181 118.258 199.181 118.298 199.181C118.418 199.181 118.558 199.141 118.678 199.141C118.678 199.141 118.698 199.141 118.718 199.141L119.138 199.081C119.138 199.081 119.178 199.081 119.198 199.081C119.318 199.081 119.438 199.041 119.558 199.041C119.618 199.041 119.658 199.041 119.718 199.021C119.818 199.021 119.918 198.981 120.038 198.981C120.078 198.981 120.118 198.981 120.158 198.981C120.298 198.981 120.438 198.941 120.558 198.922C120.698 198.902 120.838 198.882 120.998 198.862C120.998 198.862 121.018 198.862 121.038 198.862C122.738 198.602 124.459 198.282 126.159 197.923C126.459 197.863 126.779 197.783 127.079 197.723C127.079 197.723 127.079 197.723 127.099 197.723C132.84 196.425 138.541 194.548 144.142 192.031L144.222 191.991C144.802 191.732 145.382 191.472 145.962 191.192C146.202 191.073 146.422 190.953 146.662 190.833C146.882 190.733 147.082 190.613 147.302 190.513C147.582 190.373 147.842 190.234 148.102 190.094C148.302 189.994 148.502 189.874 148.722 189.774C148.822 189.714 148.922 189.674 149.022 189.615C149.562 189.315 150.103 189.015 150.643 188.716C150.903 188.576 151.163 188.416 151.423 188.276C152.183 187.857 152.923 187.418 153.663 186.978C153.923 186.818 154.183 186.659 154.443 186.519C171.566 176.173 186.228 162.013 199.97 146.495C202.55 143.919 205.131 141.302 207.691 138.686C222.793 174.695 258.439 200 299.985 200C355.213 200 400 155.283 400 100.14C400 44.997 355.273 0 300.045 0ZM157.184 97.7831C157.184 97.7831 157.124 97.863 157.084 97.883L152.363 102.676C150.123 104.933 147.882 107.17 145.662 109.367C145.162 109.846 144.682 110.326 144.182 110.825C138.641 116.237 133.18 121.37 127.739 126.123C127.159 126.623 126.599 127.122 126.019 127.601C125.839 127.761 125.659 127.901 125.479 128.061C125.079 128.4 124.659 128.76 124.259 129.099C123.899 129.399 123.559 129.678 123.218 129.978C122.998 130.158 122.778 130.358 122.538 130.537C121.438 131.436 120.358 132.335 119.258 133.213C119.218 133.253 119.178 133.273 119.138 133.313C116.958 135.051 114.797 136.709 112.617 138.286C108.616 141.182 104.636 143.819 100.655 146.095C100.315 146.295 99.975 146.475 99.6349 146.675C99.5949 146.695 99.5349 146.735 99.4949 146.755C98.6348 147.234 97.7947 147.693 96.9345 148.133C96.8945 148.153 96.8545 148.173 96.8145 148.193C96.4945 148.372 96.1544 148.532 95.8344 148.692C95.0342 149.091 94.2341 149.491 93.454 149.85C93.094 150.01 92.7339 150.19 92.3739 150.35C92.1738 150.429 91.9738 150.529 91.7738 150.609C90.3936 151.228 89.0133 151.788 87.6331 152.307H87.5931C87.3331 152.407 87.0531 152.507 86.793 152.606C86.793 152.606 86.773 152.606 86.753 152.606C86.573 152.666 86.413 152.726 86.2329 152.786C86.2329 152.786 86.2129 152.786 86.1929 152.786C85.8329 152.906 85.4928 153.026 85.1328 153.146C85.0928 153.146 85.0728 153.166 85.0327 153.186C84.7927 153.265 84.5327 153.345 84.2926 153.425C83.9926 153.525 83.6725 153.625 83.3725 153.725C83.2125 153.785 83.0325 153.825 82.8724 153.865C82.7524 153.905 82.6324 153.925 82.5324 153.964C82.3723 154.004 82.1923 154.064 82.0323 154.104C81.9323 154.124 81.8323 154.164 81.7122 154.184C81.5322 154.224 81.3722 154.284 81.1922 154.324C81.1522 154.324 81.1322 154.324 81.0922 154.344C80.5121 154.504 79.912 154.644 79.3319 154.783C79.2919 154.783 79.2319 154.803 79.1919 154.823C79.0319 154.863 78.8718 154.903 78.7118 154.923C78.5918 154.943 78.4718 154.983 78.3517 155.003C78.1917 155.043 78.0117 155.083 77.8517 155.103C76.3114 155.422 74.7712 155.682 73.231 155.862C72.9909 155.902 72.7309 155.922 72.4909 155.942C72.3509 155.942 72.2108 155.962 72.0708 155.982C71.9308 155.982 71.7708 156.002 71.6307 156.022C71.5907 156.022 71.5307 156.022 71.4907 156.022C71.0907 156.062 70.6906 156.081 70.2705 156.121C70.2505 156.121 70.2105 156.121 70.1905 156.121C70.0505 156.121 69.8905 156.121 69.7505 156.141C67.1901 156.281 64.6097 156.241 62.0093 155.982C36.2254 152.906 22.8434 134.412 22.8434 100.34C22.8434 52.2469 52.7079 17.3357 100.875 17.3357C140.001 17.3357 169.885 39.984 179.727 74.256C172.166 82.165 164.665 90.0739 157.184 97.6832V97.7831ZM299.185 182.285C260.059 182.285 230.175 159.637 220.333 125.364C227.894 117.456 235.395 109.547 242.876 101.937C242.916 101.897 242.936 101.857 242.976 101.837L247.697 97.0441C249.937 94.7873 252.178 92.5504 254.398 90.3535C254.898 89.8742 255.378 89.3948 255.878 88.8955C261.419 83.4831 266.88 78.3503 272.321 73.597C272.901 73.0977 273.461 72.5984 274.041 72.119C274.221 71.9593 274.401 71.8195 274.581 71.6597C274.981 71.3202 275.401 70.9607 275.801 70.6211C276.141 70.3216 276.501 70.0419 276.841 69.7424C277.062 69.5626 277.282 69.3629 277.522 69.1831C278.622 68.2844 279.702 67.3857 280.802 66.5069C280.842 66.4669 280.882 66.447 280.922 66.407C283.102 64.6695 285.263 63.0118 287.443 61.434C291.444 58.538 295.424 55.9017 299.405 53.6249C299.745 53.4252 300.085 53.2455 300.425 53.0457C300.465 53.0258 300.525 52.9858 300.565 52.9658C301.425 52.4865 302.265 52.0272 303.125 51.5878C303.165 51.5678 303.205 51.5478 303.245 51.5279C303.566 51.3481 303.906 51.1883 304.226 51.0286C305.026 50.6291 305.806 50.2297 306.606 49.8702C306.966 49.7104 307.326 49.5307 307.686 49.3709C307.886 49.291 308.086 49.1911 308.286 49.1112C309.666 48.4921 311.047 47.9329 312.427 47.4136H312.467C312.727 47.3138 313.007 47.2139 313.267 47.114C313.267 47.114 313.287 47.114 313.307 47.114C313.487 47.0541 313.647 46.9942 313.827 46.9343C313.827 46.9343 313.847 46.9343 313.867 46.9343C314.227 46.8145 314.567 46.6946 314.927 46.5748C314.967 46.5748 314.987 46.5548 315.027 46.5349C315.267 46.455 315.527 46.3751 315.767 46.2952C316.067 46.1953 316.387 46.0955 316.687 45.9956C316.848 45.9357 317.028 45.8957 317.188 45.8558C317.308 45.8159 317.428 45.7959 317.528 45.7559C317.688 45.716 317.868 45.6561 318.028 45.6161C318.128 45.5962 318.228 45.5562 318.348 45.5362C318.528 45.4963 318.688 45.4364 318.868 45.3964C318.908 45.3964 318.928 45.3964 318.968 45.3765C319.548 45.2167 320.148 45.0769 320.728 44.9371C320.768 44.9371 320.828 44.9171 320.868 44.8971C321.028 44.8572 321.188 44.8173 321.348 44.7973C321.468 44.7773 321.588 44.7374 321.708 44.7174C321.868 44.6775 322.048 44.6375 322.208 44.6175C323.749 44.298 325.289 44.0383 326.829 43.8586C327.069 43.8187 327.329 43.7987 327.569 43.7787C327.709 43.7787 327.849 43.7587 327.989 43.7388C328.129 43.7388 328.289 43.7188 328.429 43.6988C328.469 43.6988 328.529 43.6988 328.569 43.6988C328.969 43.6589 329.369 43.6389 329.789 43.599C329.809 43.599 329.849 43.599 329.869 43.599C330.009 43.599 330.17 43.599 330.31 43.579C332.87 43.4392 335.45 43.4791 338.051 43.7388C363.835 46.8145 377.217 65.3086 377.217 99.3809C377.217 147.474 347.352 182.385 299.185 182.385V182.285Z" fill="white"></path>
</svg>